<?xml version="1.0" encoding="UTF-8"?>
<svg version="1.1" xmlns="http://www.w3.org/2000/svg" width="512" height="512">
<path d="M0 0 C1.1889004 -0.00706559 2.3778008 -0.01413118 3.60272849 -0.02141088 C4.89998842 -0.0189958 6.19724836 -0.01658071 7.5338192 -0.01409245 C8.93288025 -0.0185469 10.33193878 -0.02386163 11.73099363 -0.02996117 C15.57082477 -0.04412701 19.41057491 -0.04580473 23.25042844 -0.04536426 C27.39375749 -0.04701374 31.53705328 -0.06008279 35.68036461 -0.07155704 C44.73837693 -0.09439692 53.79636581 -0.1023267 62.85440302 -0.10738349 C68.51267565 -0.11064195 74.17094149 -0.11716537 79.82921028 -0.12438488 C95.5020895 -0.14395017 111.1749624 -0.16035457 126.84785461 -0.16326141 C128.35199215 -0.16354277 128.35199215 -0.16354277 129.8865163 -0.16382981 C131.91927044 -0.16419605 133.95202458 -0.16455975 135.98477872 -0.16492092 C136.99381211 -0.16510373 138.00284551 -0.16528654 139.04245567 -0.16547489 C140.55785811 -0.16574572 140.55785811 -0.16574572 142.10387473 -0.16602201 C158.46869059 -0.16956259 174.83337478 -0.19657802 191.19814499 -0.23397278 C208.0084644 -0.27207751 224.81871853 -0.29141905 241.62908208 -0.29172093 C251.06390186 -0.29230504 260.49856459 -0.30076719 269.93334389 -0.32971859 C277.96833105 -0.35426154 286.0031039 -0.36149578 294.03811844 -0.34647106 C298.13489268 -0.33931382 302.23124398 -0.34010791 306.3279705 -0.36288166 C310.0849685 -0.383566 313.84122094 -0.38078443 317.59821169 -0.36000682 C319.58732298 -0.35489382 321.57645187 -0.37421879 323.56546462 -0.39466852 C333.03792203 -0.30668198 341.64006415 1.74640067 349.36032677 7.51006222 C357.57747087 16.1184989 361.88059005 25.6657317 362.02622604 37.61611462 C361.96771689 39.37445944 361.96771689 39.37445944 361.90802574 41.16832638 C361.88826892 41.82748224 361.86851209 42.4866381 361.84815657 43.16576838 C361.80485444 44.5998487 361.75900167 46.03385381 361.71086884 47.46778011 C361.57762032 51.46634451 361.46613268 55.46552768 361.35333824 59.4647131 C361.31679245 60.74245814 361.31679245 60.74245814 361.27950835 62.04601622 C360.9467827 74.01258588 360.79912837 85.98271551 360.64518356 97.95269299 C360.51493805 107.66708694 360.31962129 117.37210343 359.97263145 127.08135128 C356.03930369 174.18855859 356.03930369 174.18855859 373.16397858 215.88647747 C379.52899889 222.50735886 386.68523901 228.09218158 394.47351646 232.9379797 C397.92409206 235.11560708 400.3337566 237.08922913 401.54390305 241.12106806 C401.99022108 243.28377843 402.11400155 245.21127943 402.11954784 247.41725731 C402.12400569 248.24276917 402.12846353 249.06828103 402.13305646 249.9188084 C402.13277992 251.27126214 402.13277992 251.27126214 402.13249779 252.65103817 C402.13617448 253.61308542 402.13985116 254.57513268 402.14363927 255.56633288 C402.15467609 258.79880207 402.15852 262.03123911 402.16232872 265.26372433 C402.16859351 267.57816832 402.17524032 269.8926113 402.18224144 272.20705318 C402.20328724 279.81716365 402.21364621 287.42727432 402.22360802 295.03740597 C402.22765576 297.65843943 402.23177269 300.27947278 402.2359581 302.90050602 C402.25282937 313.80630735 402.26746255 324.71210576 402.27470684 335.61791801 C402.27661659 338.44695633 402.27853694 341.27599464 402.28049278 344.10503292 C402.28097652 344.80813658 402.28146026 345.51124024 402.28195866 346.23565007 C402.29024884 357.61098375 402.31556825 368.98621193 402.34807346 380.3614996 C402.38121094 392.05392942 402.39916176 403.74630576 402.40235108 415.43878275 C402.40469863 421.99805852 402.41362068 428.55716762 402.43881226 435.11639881 C402.46214991 441.29291147 402.46630312 447.4691484 402.45605087 453.64569378 C402.45555675 455.905889 402.46184059 458.16609806 402.47560692 460.42625141 C402.64575286 490.03075028 402.64575286 490.03075028 391.98532677 501.26006222 C391.39880333 501.88654659 390.81227989 502.51303097 390.20798302 503.15849972 C380.39022964 512.67509502 368.67955118 512.84294294 355.79172325 512.76799679 C354.05764779 512.77261141 352.32357625 512.77896808 350.58951283 512.78690577 C345.84683392 512.80354513 341.10447856 512.79537731 336.36179876 512.78296089 C331.23833091 512.7738906 326.11491771 512.78788994 320.9914608 512.79888058 C310.96346233 512.81664925 300.93558375 512.81283315 290.90758061 512.80123001 C282.75622974 512.79218948 274.60491242 512.79097438 266.45355797 512.79532528 C265.29257259 512.79593821 264.13158721 512.79655114 262.93542045 512.79718265 C260.57676036 512.79846158 258.21810028 512.79975843 255.85944021 512.80107301 C233.75218045 512.81247398 211.64498708 512.79937268 189.5377382 512.77787155 C170.57654959 512.76000102 151.61545893 512.76310527 132.65427208 512.78154659 C110.62508755 512.80296183 88.59596118 512.81137538 66.56676769 512.79909754 C64.21687699 512.79782337 61.86698628 512.79656588 59.51709557 512.79532528 C58.36096195 512.79470818 57.20482834 512.79409108 56.01366037 512.79345527 C47.87390173 512.79000434 39.73418003 512.7958252 31.59442711 512.80524349 C21.67219921 512.81647208 11.75009787 512.81340525 1.82788444 512.79212052 C-3.23274146 512.78162177 -8.2931565 512.77746832 -13.35378075 512.79071712 C-17.98999101 512.80267107 -22.62579576 512.79602902 -27.26196945 512.77480692 C-28.93544169 512.77035357 -30.60894847 512.77257851 -32.28239834 512.78231007 C-45.6857649 512.85425076 -55.90970538 511.28850954 -65.85451698 501.61162472 C-74.13774437 492.59444047 -76.48411857 482.02920718 -76.40235329 469.99365902 C-76.40773882 469.02210296 -76.41312436 468.05054691 -76.4186731 467.04954976 C-76.43286476 463.82702603 -76.42587085 460.60491819 -76.41872597 457.38237667 C-76.42443395 455.05878529 -76.43139986 452.7351967 -76.4395237 450.41161251 C-76.4574181 444.1246965 -76.45629424 437.83792033 -76.45058131 431.55098653 C-76.44709334 425.63155842 -76.45505917 419.71215147 -76.46194196 413.79272797 C-76.47564048 401.35838415 -76.47024681 388.92410342 -76.45875675 376.48976108 C-76.44881547 365.1244156 -76.46178512 353.75923271 -76.48569094 342.39391229 C-76.51009184 330.70465796 -76.51928842 319.0154861 -76.51303822 307.32620686 C-76.5096677 300.77112631 -76.5120909 294.21618025 -76.52928925 287.66111851 C-76.54474783 281.50091737 -76.54081453 275.34102738 -76.5219841 269.18083858 C-76.51829596 266.92177229 -76.52141319 264.66268299 -76.53186989 262.40363789 C-76.54506484 259.31723785 -76.53354497 256.23187028 -76.51587868 253.14551449 C-76.52548368 252.25416579 -76.53508869 251.36281709 -76.54498476 250.44445783 C-76.44673297 242.08810295 -73.50732212 236.28506142 -67.62446022 230.44231319 C-67.0764727 229.91810787 -66.52848518 229.39390255 -65.96389198 228.85381222 C-65.38686028 228.28481197 -64.80982857 227.71581173 -64.21531105 227.12956905 C-62.38693149 225.32990523 -60.5454094 223.54449486 -58.70217323 221.76006222 C-56.28520738 219.39975151 -53.87375149 217.03387598 -51.46389198 214.66631222 C-50.88912117 214.10331417 -50.31435036 213.54031612 -49.72216225 212.96025753 C-46.09509079 209.38810866 -42.63136243 205.73170738 -39.35769081 201.82842159 C-38.01467323 200.26006222 -38.01467323 200.26006222 -36.45481396 199.07230473 C-34.29278844 196.35165772 -34.63515864 194.1357379 -34.62940407 190.69582272 C-34.62416837 190.02582339 -34.61893268 189.35582407 -34.61353832 188.66552174 C-34.59954494 186.41544043 -34.60688619 184.16593007 -34.61403847 181.91582394 C-34.60829744 180.30438381 -34.60121529 178.69294798 -34.59288979 177.08151913 C-34.5777573 173.60784961 -34.57200411 170.13433397 -34.57341766 166.66063213 C-34.57544947 161.16342522 -34.55589483 155.66642523 -34.53324318 150.16927242 C-34.49222229 139.483916 -34.47366191 128.79857567 -34.4570713 118.11315823 C-34.43473739 104.53382538 -34.40107453 90.95454038 -34.34987217 77.37528527 C-34.32999611 71.9159589 -34.32037347 66.4567402 -34.31892002 60.99737906 C-34.31615926 57.59135464 -34.30530564 54.18538904 -34.2924099 50.77938938 C-34.28814895 49.20609174 -34.28725748 47.63278059 -34.29008484 46.05947971 C-34.31196534 32.29931662 -32.68752852 22.52622278 -24.82717323 11.07256222 C-18.07877309 4.32416208 -9.61908106 0.01832525 0 0 Z " fill="#DBE9FE" transform="translate(93.01467323303223,-0.26006221771240234)"/>
<path d="M0 0 C0.93743546 0.5365773 1.87487091 1.0731546 2.8407135 1.62599182 C4.09570418 2.34385749 5.35070449 3.06170632 6.60571289 3.77954102 C7.52802578 4.30755184 7.52802578 4.30755184 8.46897125 4.84622955 C13.41197634 7.67282514 18.37939785 10.45398794 23.35522461 13.22241211 C31.68482469 17.85729849 39.98742322 22.50861374 48.12890625 27.46777344 C54.17530823 31.13880321 60.30642723 34.66020452 66.4375 38.1875 C77.99424647 44.83772717 89.52037348 51.53853017 101.03222656 58.26611328 C106.01990952 61.18010837 111.01005772 64.08987604 116 67 C121.9777679 70.48622181 127.95505989 73.97324222 133.9296875 77.46484375 C144.20532498 83.46777025 154.49633553 89.44196551 164.8125 95.375 C173.70896889 100.49286114 182.5565281 105.68647464 191.375 110.9375 C200.5304559 116.38829466 209.73633601 121.73639371 219 127 C228.26366578 132.2636073 237.46948768 137.61179793 246.625 143.0625 C259.67874419 150.83382462 272.82590029 158.43495151 286 166 C300.30111681 174.21222281 314.55397091 182.49286027 328.72290039 190.93139648 C338.17445263 196.54537345 347.70483129 202.01260966 357.27490234 207.42163086 C358.35723145 208.03530518 359.43956055 208.64897949 360.5546875 209.28125 C361.61268555 209.88066406 362.67068359 210.48007812 363.76074219 211.09765625 C366.04742184 212.44057213 368.27533121 213.80444972 370.49707031 215.24609375 C371.07449982 215.6169812 371.65192932 215.98786865 372.24685669 216.36999512 C373.84919527 217.40657041 375.44084265 218.45961858 377.03173828 219.51367188 C380.35457746 221.17755121 382.33372243 221.42077328 386 221 C388.58333333 219.58333333 388.58333333 219.58333333 390 217 C390.12050539 213.52632158 390.12050539 213.52632158 389 210 C386.91572288 208.2240289 385.31987522 207.1650395 382.9375 205.9375 C381.55694639 205.16858835 380.17676345 204.39901095 378.796875 203.62890625 C378.03181641 203.2127002 377.26675781 202.79649414 376.47851562 202.36767578 C372.83981336 200.35979457 369.26634161 198.24474878 365.68457031 196.13745117 C356.22091821 190.57227485 346.70392014 185.09922521 337.1875 179.625 C328.29108123 174.50704975 319.44347344 169.31352627 310.625 164.0625 C301.4695268 158.61169504 292.26336037 153.26416057 283 148 C273.28518617 142.47546085 263.61880196 136.87751393 254 131.1875 C253.41847168 130.84452881 252.83694336 130.50155762 252.23779297 130.14819336 C250.59445426 129.17828106 248.95342615 128.20445712 247.3125 127.23046875 C246.38050781 126.67770264 245.44851563 126.12493652 244.48828125 125.55541992 C242.22429176 124.14020436 240.1057998 122.63883746 238 121 C247.00874135 115.51447928 256.10473007 110.192169 265.25 104.9375 C274.37499885 99.69304231 283.45502909 94.3817413 292.5 89 C306.73864129 80.53250577 321.0881659 72.2639726 335.45507812 64.01660156 C350.7940829 55.24697646 350.7940829 55.24697646 366 46.25 C366.94875 45.67765625 367.8975 45.1053125 368.875 44.515625 C371.24792991 43.01301868 371.24792991 43.01301868 373 40 C372.9071875 39.03835938 372.814375 38.07671875 372.71875 37.0859375 C372.8115625 36.06757813 372.904375 35.04921875 373 34 C375.21439822 32.18103004 377.02082091 30.94963415 379.5 29.625 C380.12003906 29.27050781 380.74007813 28.91601562 381.37890625 28.55078125 C382.90798257 27.68038396 384.45263275 26.83744876 386 26 C386.515625 26.515625 387.03125 27.03125 387.5625 27.5625 C389.98204686 29.2658049 389.98204686 29.2658049 393.16015625 29.01171875 C398.13580475 27.70073913 402.0462556 25.44557935 406.4375 22.8125 C407.78122681 22.02685669 407.78122681 22.02685669 409.15209961 21.2253418 C412.10807475 19.49464923 415.05429285 17.7481051 418 16 C421.28099099 14.06270919 424.5638784 12.12877674 427.84985352 10.19995117 C429.96307631 8.95841873 432.07304757 7.71133224 434.17944336 6.45825195 C435.14245361 5.89066162 436.10546387 5.32307129 437.09765625 4.73828125 C437.94851807 4.23337158 438.79937988 3.72846191 439.67602539 3.20825195 C441.82839988 2.0892162 443.65482775 1.53672346 446 1 C446.06846506 30.16444769 446.12154311 59.32888752 446.15319599 88.49339953 C446.15694803 91.93798263 446.160831 95.38256557 446.16479492 98.82714844 C446.16558185 99.51289135 446.16636878 100.19863427 446.16717956 100.90515727 C446.1802269 112.00280347 446.20387703 123.10040296 446.23145839 134.19802147 C446.25953132 145.58858437 446.27595575 156.97911268 446.28226548 168.36971235 C446.28617712 174.7662206 446.29537346 181.16262297 446.31719017 187.55909729 C446.33756068 193.58037313 446.34383258 199.60149952 446.33932304 205.62280655 C446.34014798 207.83188311 446.34611015 210.0409647 446.35761642 212.25001144 C446.37256911 215.26894876 446.36894322 218.28732375 446.36076355 221.30627441 C446.36950207 222.17788979 446.3782406 223.04950517 446.38724393 223.94753313 C446.3401663 230.38761886 445.37092644 236.09826914 441.16796875 241.2421875 C440.51441406 241.78101563 439.86085938 242.31984375 439.1875 242.875 C438.21876953 243.70644531 438.21876953 243.70644531 437.23046875 244.5546875 C432.32053916 247.73625308 427.58799586 248.2507733 421.83408546 248.25726891 C421.13226084 248.26077498 420.43043621 248.26428105 419.70734417 248.26789337 C417.35589303 248.27719642 415.00469014 248.27228695 412.65322876 248.26742554 C410.95020737 248.27116234 409.24718769 248.27576398 407.54417074 248.28115618 C402.8643021 248.29339768 398.18450489 248.29312436 393.50462389 248.29076743 C388.45748319 248.29035956 383.41036548 248.30139551 378.36323547 248.31088257 C368.47529488 248.32749941 358.58737814 248.33299241 348.69942476 248.33410732 C340.66330502 248.33505739 332.62719315 248.33916561 324.5910759 248.34550858 C301.81264687 248.36312217 279.03423669 248.37234716 256.2558008 248.37084763 C255.02766583 248.37076772 253.79953087 248.3706878 252.53417969 248.37060547 C251.30454728 248.37052371 250.07491487 248.37044195 248.80802087 248.37035771 C228.87424006 248.36954458 208.94053477 248.38868874 189.00677581 248.4168822 C168.54427729 248.44559542 148.08181562 248.45942339 127.61929643 248.45769465 C116.12895352 248.45703025 104.6386898 248.46254452 93.14836502 248.48405075 C83.36647753 248.50224189 73.58470513 248.50662681 63.80280806 248.4930319 C58.81143791 248.48649208 53.82028871 248.48642173 48.82893944 248.5037384 C44.25931367 248.51942906 39.69008476 248.51664656 35.1204689 248.49917014 C33.46775601 248.49609142 31.81501379 248.49976538 30.16233547 248.51089029 C13.24500279 248.61722254 13.24500279 248.61722254 5.9765625 242.21875 C5.53054687 241.6515625 5.08453125 241.084375 4.625 240.5 C4.16351563 239.9328125 3.70203125 239.365625 3.2265625 238.78125 C0.95349325 235.48023224 -0.2504414 232.91050089 -0.24609566 228.86896133 C-0.25007775 228.04936597 -0.25405985 227.22977061 -0.25816262 226.38533902 C-0.25233693 225.49039943 -0.24651125 224.59545985 -0.24050903 223.67340088 C-0.24221788 222.71851548 -0.24392673 221.76363008 -0.24568737 220.77980876 C-0.24898813 217.57220562 -0.23796881 214.36481051 -0.22705078 211.15722656 C-0.22648679 208.86109929 -0.22680298 206.56497166 -0.22793579 204.2688446 C-0.22851079 198.02751353 -0.21673258 191.78625897 -0.20278788 185.54494572 C-0.19030511 179.02530871 -0.18911196 172.50567006 -0.18673706 165.98602295 C-0.18122247 155.0406355 -0.16872084 144.09527638 -0.15087891 133.14990234 C-0.13252078 121.87614075 -0.11836395 110.6023868 -0.10986328 99.32861328 C-0.10907511 98.28623467 -0.10907511 98.28623467 -0.10827102 97.2227979 C-0.10566094 93.73659188 -0.10313353 90.25038581 -0.10064721 86.76417971 C-0.0799139 57.84276786 -0.04453898 28.9213846 0 0 Z " fill="#FDDF7C" transform="translate(33,249)"/>
<path d="M0 0 C1.1889004 -0.00706559 2.3778008 -0.01413118 3.60272849 -0.02141088 C4.89998842 -0.0189958 6.19724836 -0.01658071 7.5338192 -0.01409245 C8.93288025 -0.0185469 10.33193878 -0.02386163 11.73099363 -0.02996117 C15.57082477 -0.04412701 19.41057491 -0.04580473 23.25042844 -0.04536426 C27.39375749 -0.04701374 31.53705328 -0.06008279 35.68036461 -0.07155704 C44.73837693 -0.09439692 53.79636581 -0.1023267 62.85440302 -0.10738349 C68.51267565 -0.11064195 74.17094149 -0.11716537 79.82921028 -0.12438488 C95.5020895 -0.14395017 111.1749624 -0.16035457 126.84785461 -0.16326141 C128.35199215 -0.16354277 128.35199215 -0.16354277 129.8865163 -0.16382981 C131.91927044 -0.16419605 133.95202458 -0.16455975 135.98477872 -0.16492092 C136.99381211 -0.16510373 138.00284551 -0.16528654 139.04245567 -0.16547489 C140.55785811 -0.16574572 140.55785811 -0.16574572 142.10387473 -0.16602201 C158.46869059 -0.16956259 174.83337478 -0.19657802 191.19814499 -0.23397278 C208.0084644 -0.27207751 224.81871853 -0.29141905 241.62908208 -0.29172093 C251.06390186 -0.29230504 260.49856459 -0.30076719 269.93334389 -0.32971859 C277.96833105 -0.35426154 286.0031039 -0.36149578 294.03811844 -0.34647106 C298.13489268 -0.33931382 302.23124398 -0.34010791 306.3279705 -0.36288166 C310.0849685 -0.383566 313.84122094 -0.38078443 317.59821169 -0.36000682 C319.58732298 -0.35489382 321.57645187 -0.37421879 323.56546462 -0.39466852 C333.03792203 -0.30668198 341.64006415 1.74640067 349.36032677 7.51006222 C357.57747087 16.1184989 361.88059005 25.6657317 362.02622604 37.61611462 C361.96771689 39.37445944 361.96771689 39.37445944 361.90802574 41.16832638 C361.88826892 41.82748224 361.86851209 42.4866381 361.84815657 43.16576838 C361.80485444 44.5998487 361.75900167 46.03385381 361.71086884 47.46778011 C361.57762032 51.46634451 361.46613268 55.46552768 361.35333824 59.4647131 C361.31679245 60.74245814 361.31679245 60.74245814 361.27950835 62.04601622 C360.9467827 74.01258588 360.79912837 85.98271551 360.64518356 97.95269299 C360.51493805 107.66708694 360.31962129 117.37210343 359.97263145 127.08135128 C356.03930369 174.18855859 356.03930369 174.18855859 373.16397858 215.88647747 C379.52899889 222.50735886 386.68523901 228.09218158 394.47351646 232.9379797 C397.92409206 235.11560708 400.3337566 237.08922913 401.54390305 241.12106806 C401.99022108 243.28377843 402.11400155 245.21127943 402.11954784 247.41725731 C402.12400569 248.24276917 402.12846353 249.06828103 402.13305646 249.9188084 C402.13277992 251.27126214 402.13277992 251.27126214 402.13249779 252.65103817 C402.13617448 253.61308542 402.13985116 254.57513268 402.14363927 255.56633288 C402.15467609 258.79880207 402.15852 262.03123911 402.16232872 265.26372433 C402.16859351 267.57816832 402.17524032 269.8926113 402.18224144 272.20705318 C402.20328724 279.81716365 402.21364621 287.42727432 402.22360802 295.03740597 C402.22765576 297.65843943 402.23177269 300.27947278 402.2359581 302.90050602 C402.25282937 313.80630735 402.26746255 324.71210576 402.27470684 335.61791801 C402.27661659 338.44695633 402.27853694 341.27599464 402.28049278 344.10503292 C402.28097652 344.80813658 402.28146026 345.51124024 402.28195866 346.23565007 C402.29024884 357.61098375 402.31556825 368.98621193 402.34807346 380.3614996 C402.38121094 392.05392942 402.39916176 403.74630576 402.40235108 415.43878275 C402.40469863 421.99805852 402.41362068 428.55716762 402.43881226 435.11639881 C402.46214991 441.29291147 402.46630312 447.4691484 402.45605087 453.64569378 C402.45555675 455.905889 402.46184059 458.16609806 402.47560692 460.42625141 C402.64575286 490.03075028 402.64575286 490.03075028 391.98532677 501.26006222 C391.39880333 501.88654659 390.81227989 502.51303097 390.20798302 503.15849972 C380.39022964 512.67509502 368.67955118 512.84294294 355.79172325 512.76799679 C354.05764779 512.77261141 352.32357625 512.77896808 350.58951283 512.78690577 C345.84683392 512.80354513 341.10447856 512.79537731 336.36179876 512.78296089 C331.23833091 512.7738906 326.11491771 512.78788994 320.9914608 512.79888058 C310.96346233 512.81664925 300.93558375 512.81283315 290.90758061 512.80123001 C282.75622974 512.79218948 274.60491242 512.79097438 266.45355797 512.79532528 C265.29257259 512.79593821 264.13158721 512.79655114 262.93542045 512.79718265 C260.57676036 512.79846158 258.21810028 512.79975843 255.85944021 512.80107301 C233.75218045 512.81247398 211.64498708 512.79937268 189.5377382 512.77787155 C170.57654959 512.76000102 151.61545893 512.76310527 132.65427208 512.78154659 C110.62508755 512.80296183 88.59596118 512.81137538 66.56676769 512.79909754 C64.21687699 512.79782337 61.86698628 512.79656588 59.51709557 512.79532528 C58.36096195 512.79470818 57.20482834 512.79409108 56.01366037 512.79345527 C47.87390173 512.79000434 39.73418003 512.7958252 31.59442711 512.80524349 C21.67219921 512.81647208 11.75009787 512.81340525 1.82788444 512.79212052 C-3.23274146 512.78162177 -8.2931565 512.77746832 -13.35378075 512.79071712 C-17.98999101 512.80267107 -22.62579576 512.79602902 -27.26196945 512.77480692 C-28.93544169 512.77035357 -30.60894847 512.77257851 -32.28239834 512.78231007 C-45.6857649 512.85425076 -55.90970538 511.28850954 -65.85451698 501.61162472 C-74.13774437 492.59444047 -76.48411857 482.02920718 -76.40235329 469.99365902 C-76.40773882 469.02210296 -76.41312436 468.05054691 -76.4186731 467.04954976 C-76.43286476 463.82702603 -76.42587085 460.60491819 -76.41872597 457.38237667 C-76.42443395 455.05878529 -76.43139986 452.7351967 -76.4395237 450.41161251 C-76.4574181 444.1246965 -76.45629424 437.83792033 -76.45058131 431.55098653 C-76.44709334 425.63155842 -76.45505917 419.71215147 -76.46194196 413.79272797 C-76.47564048 401.35838415 -76.47024681 388.92410342 -76.45875675 376.48976108 C-76.44881547 365.1244156 -76.46178512 353.75923271 -76.48569094 342.39391229 C-76.51009184 330.70465796 -76.51928842 319.0154861 -76.51303822 307.32620686 C-76.5096677 300.77112631 -76.5120909 294.21618025 -76.52928925 287.66111851 C-76.54474783 281.50091737 -76.54081453 275.34102738 -76.5219841 269.18083858 C-76.51829596 266.92177229 -76.52141319 264.66268299 -76.53186989 262.40363789 C-76.54506484 259.31723785 -76.53354497 256.23187028 -76.51587868 253.14551449 C-76.52548368 252.25416579 -76.53508869 251.36281709 -76.54498476 250.44445783 C-76.44673297 242.08810295 -73.50732212 236.28506142 -67.62446022 230.44231319 C-67.0764727 229.91810787 -66.52848518 229.39390255 -65.96389198 228.85381222 C-65.38686028 228.28481197 -64.80982857 227.71581173 -64.21531105 227.12956905 C-62.38693149 225.32990523 -60.5454094 223.54449486 -58.70217323 221.76006222 C-56.28520738 219.39975151 -53.87375149 217.03387598 -51.46389198 214.66631222 C-50.88912117 214.10331417 -50.31435036 213.54031612 -49.72216225 212.96025753 C-46.09509079 209.38810866 -42.63136243 205.73170738 -39.35769081 201.82842159 C-38.01467323 200.26006222 -38.01467323 200.26006222 -36.45481396 199.07230473 C-34.29278844 196.35165772 -34.63515864 194.1357379 -34.62940407 190.69582272 C-34.62416837 190.02582339 -34.61893268 189.35582407 -34.61353832 188.66552174 C-34.59954494 186.41544043 -34.60688619 184.16593007 -34.61403847 181.91582394 C-34.60829744 180.30438381 -34.60121529 178.69294798 -34.59288979 177.08151913 C-34.5777573 173.60784961 -34.57200411 170.13433397 -34.57341766 166.66063213 C-34.57544947 161.16342522 -34.55589483 155.66642523 -34.53324318 150.16927242 C-34.49222229 139.483916 -34.47366191 128.79857567 -34.4570713 118.11315823 C-34.43473739 104.53382538 -34.40107453 90.95454038 -34.34987217 77.37528527 C-34.32999611 71.9159589 -34.32037347 66.4567402 -34.31892002 60.99737906 C-34.31615926 57.59135464 -34.30530564 54.18538904 -34.2924099 50.77938938 C-34.28814895 49.20609174 -34.28725748 47.63278059 -34.29008484 46.05947971 C-34.31196534 32.29931662 -32.68752852 22.52622278 -24.82717323 11.07256222 C-18.07877309 4.32416208 -9.61908106 0.01832525 0 0 Z M-15.57717323 24.44756222 C-18.11735952 29.41749191 -18.17513907 33.69433349 -18.19548988 39.160285 C-18.20629666 40.54210407 -18.20629666 40.54210407 -18.21732175 41.95183867 C-18.24011912 45.05171919 -18.25563729 48.15159172 -18.27102089 51.2515173 C-18.28546632 53.46879937 -18.30022392 55.68607943 -18.31527138 57.90335751 C-18.44548012 78.13387639 -18.51162381 98.36494962 -18.56311417 118.59580612 C-18.570123 121.30200705 -18.57725001 124.00820763 -18.58449745 126.71440792 C-18.58629274 127.38701649 -18.58808804 128.05962506 -18.58993773 128.75261571 C-18.62001189 139.65117974 -18.68478809 150.54926215 -18.76318391 161.44757418 C-18.8430085 172.63703884 -18.88808756 183.82633305 -18.90214002 195.01609439 C-18.9110172 201.29883053 -18.93537049 207.58063864 -18.99680901 213.8630991 C-19.05394233 219.77231422 -19.06875945 225.68012016 -19.05093575 231.58957005 C-19.05181601 233.75923099 -19.06814239 235.92894842 -19.10098076 238.09836102 C-19.79707013 249.05198217 -19.79707013 249.05198217 -16.04782009 258.83971882 C-13.71699514 260.42841434 -11.67959121 261.37472516 -9.01467323 262.26006222 C-7.51601723 263.16885128 -7.51601723 263.16885128 -5.98708534 264.09599972 C-5.09771278 264.60389034 -4.20834023 265.11178097 -3.29201698 265.63506222 C-2.27172401 266.22029659 -1.25143105 266.80553097 -0.20022011 267.40849972 C0.87163536 268.01951534 1.94349083 268.63053097 3.04782677 269.26006222 C5.37234657 270.5928747 7.69655766 271.92621465 10.02048302 273.26006222 C10.60584831 273.5956213 11.19121361 273.93118038 11.79431725 274.27690792 C17.54267225 277.57391526 23.265489 280.91391181 28.98532677 284.26006222 C37.30261415 289.12148339 45.63738607 293.95147485 53.98532677 298.76006222 C65.35279025 305.30898518 76.69096357 311.90686117 88.01755333 318.5261755 C92.00437627 320.8554299 95.99283853 323.18186849 99.98142052 325.50810909 C102.98030719 327.25713468 105.97891083 329.00664484 108.97751427 330.75615597 C113.00256651 333.10421233 117.0287098 335.45038313 121.05563927 337.79521847 C122.55828331 338.67101559 122.55828331 338.67101559 124.0912838 339.56450558 C126.0884713 340.72751279 128.08682728 341.88851596 130.08640099 343.04741573 C135.1550321 345.99206895 140.18560388 348.98394315 145.17282677 352.06474972 C146.17040001 352.67439571 147.16797325 353.28404171 148.19577599 353.91216183 C150.09147994 355.07343533 151.97907893 356.24808081 153.8569088 357.43804073 C158.70025588 360.43933832 158.70025588 360.43933832 164.21188927 361.33428097 C167.49251695 360.06361532 170.25808634 358.51876647 173.23532677 356.63506222 C174.56316963 355.81088977 175.89273681 354.98949175 177.22360802 354.17021847 C177.96949181 353.71018429 178.7153756 353.25015011 179.48386192 352.7761755 C184.41296835 349.78869249 189.42414851 346.94151933 194.42282677 344.07256222 C205.98031367 337.42363152 217.50570947 330.72152666 229.01755333 323.99394894 C234.00523634 321.07995381 238.99541382 318.17023654 243.98532677 315.26006222 C245.98533857 314.09341579 247.98533858 312.92674913 249.98532677 311.76006222 C253.98532677 309.42672888 257.98532677 307.09339555 261.98532677 304.76006222 C262.97677696 304.18135372 263.96822716 303.60264523 264.9897213 303.00640011 C266.9737975 301.84974998 268.95913471 300.69526003 270.94577599 299.5430212 C276.20222184 296.49037549 281.42639092 293.39433092 286.61813927 290.23271847 C287.70481895 289.57851925 288.79149864 288.92432003 289.91110802 288.25029659 C291.99751327 286.99310369 294.07610995 285.72283199 296.14548302 284.43779659 C297.08520958 283.87512081 298.02493614 283.31244503 298.99313927 282.73271847 C299.81443321 282.23006466 300.63572716 281.72741085 301.4819088 281.20952511 C304.69900935 279.98938623 306.69238453 280.41035376 309.98532677 281.26006222 C311.92282677 282.38506222 311.92282677 282.38506222 312.98532677 284.26006222 C313.23532677 287.57256222 313.23532677 287.57256222 311.98532677 291.26006222 C310.31418419 292.68877316 310.31418419 292.68877316 308.15329552 294.05693722 C307.33812462 294.57425411 306.52295372 295.09157101 305.68308067 295.62456417 C300.84632234 298.55682155 295.96041372 301.39446071 291.04782677 304.19756222 C289.31693836 305.19105401 287.58605224 306.18454983 285.85530663 307.17829037 C284.07241935 308.20138251 282.28876403 309.22312257 280.50485802 310.24443722 C275.01479977 313.38786529 269.52994862 316.54031489 264.04782677 319.69756222 C262.97782433 320.31373409 261.90782188 320.92990597 260.80539513 321.56474972 C251.9089059 326.70059259 243.07707855 331.94167007 234.25144005 337.1980505 C225.44180453 342.4308798 216.55761032 347.52173483 207.64737511 352.58058834 C197.63107552 358.27146943 187.75680489 364.15935101 177.98532677 370.26006222 C180.78760565 372.4354205 183.64459008 374.30803129 186.71188927 376.08818722 C187.64750694 376.63265499 188.58312462 377.17712276 189.54709435 377.73808956 C190.55796104 378.32284054 191.56882774 378.90759151 192.61032677 379.51006222 C193.67211143 380.12703976 194.7338961 380.7440173 195.82785606 381.37969112 C201.34626638 384.58330353 206.87264908 387.77294045 212.40329552 390.95537472 C214.53482597 392.18190239 216.66633628 393.40846508 218.79782677 394.63506222 C219.87516075 395.25485958 220.95249474 395.87465694 222.0624752 396.51323605 C229.86601488 401.01247523 237.6209044 405.58906501 245.36032677 410.19756222 C254.51579132 415.64836203 263.72181431 420.99617925 272.98532677 426.26006222 C284.72805997 432.93396758 296.37817823 439.74981786 307.96579552 446.68974972 C311.60286628 448.86435199 315.25585051 450.98445157 318.97360802 453.01787472 C319.68799034 453.41692013 320.40237267 453.81596554 321.13840294 454.22710323 C322.93484434 455.22507681 324.74459801 456.19899113 326.55563927 457.17021847 C328.98532677 459.26006222 328.98532677 459.26006222 329.95017052 462.85381222 C329.98532677 466.26006222 329.98532677 466.26006222 328.42282677 468.69756222 C325.16521281 470.78577629 323.85022716 470.75791379 319.98532677 470.26006222 C316.56631419 468.68130248 313.42479858 466.6926616 310.23532677 464.69756222 C308.255833 463.49283376 306.27532206 462.2897754 304.29392052 461.08818722 C302.74293663 460.14169308 302.74293663 460.14169308 301.16061974 459.17607784 C295.92186995 456.01494388 290.60808337 452.98647249 285.29782677 449.94756222 C276.35781403 444.8118667 267.46837915 439.59826195 258.61032677 434.32256222 C249.45492731 428.87167495 240.24898897 423.52366749 230.98532677 418.26006222 C221.72166099 412.99645492 212.51583909 407.64826429 203.36032677 402.19756222 C190.30658258 394.42623759 177.15942648 386.82511071 163.98532677 379.26006222 C149.67394592 371.04194542 135.41211485 362.75336878 121.23166466 354.31108761 C112.61732014 349.19575912 103.93615074 344.20897212 95.22562218 339.26033688 C85.45758137 333.7080571 75.78151521 328.0128544 66.12985802 322.26006222 C57.55319191 317.15988446 48.90785487 312.19265682 40.23212242 307.26409054 C30.29949383 301.61837579 20.46045693 295.82884535 10.64426231 289.98320675 C3.06630781 285.47631509 -4.55646379 281.05915735 -12.22194862 276.70317745 C-26.52462236 268.57023044 -40.77189138 260.32253707 -54.8149662 251.74761105 C-57.24765848 250.00325552 -57.24765848 250.00325552 -60.01467323 249.26006222 C-60.12877919 278.80665643 -60.21724374 308.35324021 -60.26999988 337.90000856 C-60.27625328 341.38965571 -60.28272491 344.87930243 -60.28933144 348.36894894 C-60.29064299 349.06366369 -60.29195454 349.75837845 -60.29330584 350.47414517 C-60.31505204 361.71733141 -60.35446917 372.9603896 -60.40043721 384.20349991 C-60.44722386 395.74322419 -60.4745991 407.28285844 -60.48511571 418.8226757 C-60.49163545 425.30310215 -60.5069642 431.78323831 -60.54332352 438.26357174 C-60.57727223 444.36371072 -60.58772819 450.46343996 -60.58021164 456.56366444 C-60.58158666 458.80178142 -60.59152542 461.03991217 -60.61070061 463.27794743 C-60.63562039 466.33661509 -60.62958155 469.39374083 -60.61594582 472.45244503 C-60.63051002 473.33573325 -60.64507423 474.21902147 -60.66007978 475.129076 C-60.5768857 482.0448344 -58.34907647 486.81402435 -53.5365532 491.78766918 C-48.29140562 496.43144889 -43.86060304 497.50955648 -36.97459984 497.51733112 C-35.92404306 497.52259024 -35.92404306 497.52259024 -34.85226291 497.52795559 C-32.4997249 497.53727741 -30.147434 497.53234431 -27.79488564 497.52748775 C-26.09343999 497.53122363 -24.39199606 497.5358249 -22.69055486 497.5412184 C-18.01035751 497.5534717 -13.33023152 497.55318519 -8.65002179 497.55082965 C-3.60420771 497.55042207 1.44158332 497.56145505 6.4873867 497.57094479 C16.3751315 497.58756878 26.26285246 497.59305497 36.15061006 497.59416954 C44.18722186 497.5951194 52.22382579 497.59922658 60.2604351 497.60557079 C83.03970662 497.6231874 105.81895928 497.63240906 128.59823766 497.63090985 C129.82667531 497.63082993 131.05511296 497.63075002 132.32077599 497.63066769 C133.55071158 497.63058593 134.78064718 497.63050416 136.04785356 497.63041992 C155.9810224 497.62960701 175.91411567 497.64874487 195.84726265 497.67694442 C216.30860433 497.70566305 236.76990915 497.71948526 257.23127151 497.71775687 C268.72110226 497.71709259 280.21085381 497.72260139 291.70066643 497.74411297 C301.4836475 497.76231136 311.26651347 497.76668315 321.04950413 497.75309412 C326.04099123 497.74655758 331.03225743 497.74647207 336.0237236 497.76380062 C340.59467508 497.77950607 345.16523004 497.77669353 349.73617169 497.75923236 C351.38825933 497.75615688 353.04037637 497.75981546 354.69242933 497.77095251 C368.27452231 497.97747503 368.27452231 497.97747503 379.84771848 491.53933752 C385.69243884 485.40085384 386.27984138 478.94094961 386.2258358 470.80684566 C386.22754465 469.86250207 386.2292535 468.91815848 386.23101413 467.94519842 C386.23430474 464.78526429 386.22331228 461.62554315 386.21237755 458.46562862 C386.21181334 456.19876263 386.21213018 453.93189626 386.21326256 451.66503048 C386.2138367 445.51265743 386.20207229 439.36036227 386.18811464 433.20800734 C386.17561765 426.77780234 386.1744376 420.34759559 386.17206383 413.91738033 C386.16655261 403.12517951 386.1540576 392.33301065 386.13620567 381.54082394 C386.1178396 370.42624205 386.10368666 359.31166794 386.09519005 348.19707394 C386.0946646 347.51164129 386.09413915 346.82620865 386.09359778 346.12000532 C386.09098766 342.68129279 386.08846025 339.2425802 386.08597398 335.80386758 C386.06525022 307.28924612 386.02988336 278.7746557 385.98532677 250.26006222 C381.77044443 251.61722396 378.13821123 253.15029339 374.30954552 255.38506222 C373.24196007 256.00494015 372.17437462 256.62481808 371.0744381 257.26348019 C369.95190636 257.92235226 368.82937462 258.58122433 367.67282677 259.26006222 C366.50609689 259.93790024 365.33902066 260.61514243 364.17160606 261.2918005 C359.00041934 264.29470328 353.84916372 267.32710435 348.74313927 270.43974972 C347.9804171 270.90123409 347.21769493 271.36271847 346.43185997 271.83818722 C345.05668249 272.67389741 343.68747217 273.51954707 342.32590294 274.37724972 C338.22456908 276.86821406 334.78861952 278.03719882 329.98532677 278.26006222 C327.48532677 276.76006222 327.48532677 276.76006222 325.98532677 274.26006222 C325.80265617 270.92064953 325.80265617 270.92064953 326.98532677 267.26006222 C329.12325209 265.69747249 331.33141347 264.6391343 333.71824884 263.49474645 C341.65431938 259.65875204 341.65431938 259.65875204 347.10362244 253.02882767 C348.81771217 246.59409778 348.42198935 239.9684213 348.22165489 233.37041378 C348.22448464 231.16487813 348.235625 228.95933996 348.25440025 226.75388241 C348.28111363 220.79073748 348.19034068 214.83464314 348.07646942 208.8727417 C347.97591972 202.62403788 347.9797906 196.37535133 347.97104454 190.12596798 C347.94160591 179.63748957 347.84244146 169.15123458 347.69333458 158.66387081 C347.54024143 147.88737493 347.44116208 137.11231245 347.4062252 126.33476925 C347.40406047 125.67037115 347.40189574 125.00597305 347.39966542 124.32144168 C347.39320848 122.31577411 347.38680503 120.31010638 347.38041496 118.30443859 C347.34320355 106.72187477 347.26178297 95.13968806 347.16991806 83.55744362 C347.14159854 79.84104497 347.11808774 76.12463482 347.09471703 72.40820217 C347.05461164 66.56689576 346.98709713 60.72649273 346.89843941 54.88572788 C346.86950058 52.74447462 346.84881774 50.60309122 346.83706093 48.46167469 C346.81929879 45.53466271 346.77085907 42.60970593 346.71445274 39.68321896 C346.71605668 38.83924376 346.71766061 37.99526856 346.71931314 37.12571836 C346.53471386 30.37723995 344.20000107 25.58675287 339.50770617 20.73095345 C334.73239128 16.5092368 330.49251368 15.01283378 324.19743633 14.99720669 C323.03367735 14.9895244 321.86991837 14.98184211 320.67089397 14.97392702 C319.39659359 14.97565999 318.12229321 14.97739295 316.80937767 14.97917843 C315.43862741 14.97400902 314.06788015 14.9679821 312.69713706 14.96117163 C308.9310006 14.94504969 305.16494043 14.94145351 301.39877355 14.93997669 C297.3365801 14.93627241 293.27442609 14.92117611 289.21225548 14.90770626 C280.32993748 14.88055134 271.44763756 14.868492 262.56528497 14.85968494 C257.01809192 14.85415806 251.47090584 14.84568297 245.9237175 14.8366766 C230.56227144 14.81229269 215.20083095 14.79169384 199.83936596 14.78492641 C198.85634264 14.78448728 197.87331932 14.78404815 196.86050741 14.78359571 C195.38246353 14.78294088 195.38246353 14.78294088 193.87456018 14.78227282 C191.87787235 14.78138589 189.88118452 14.78049276 187.88449669 14.77959347 C186.89407258 14.77915061 185.90364847 14.77870775 184.88321152 14.77825147 C168.83704915 14.77035649 152.7910685 14.73545093 136.74497632 14.68887442 C120.26692167 14.64143054 103.78895816 14.61652195 87.31083411 14.61419058 C78.06046984 14.61235798 68.81034233 14.60087655 59.56004333 14.56455135 C51.68268656 14.5337264 43.80563971 14.52352163 35.92823408 14.54002756 C31.91062322 14.5478329 27.89363624 14.54602145 23.87610245 14.51791286 C20.19368988 14.49238509 16.51236831 14.49486986 12.82995673 14.51909429 C10.87608628 14.52484185 8.92219655 14.50117199 6.96847659 14.47625017 C-2.03372771 14.57707145 -10.14556847 16.70091391 -15.57717323 24.44756222 Z " fill="#020101" transform="translate(93.01467323303223,-0.26006221771240234)"/>
<path d="M0 0 C0.91265625 -0.02900391 1.8253125 -0.05800781 2.765625 -0.08789062 C10.20686704 -0.15679101 16.34446674 1.24766988 22.06640625 6.21484375 C26.48683512 12.77622108 26.52235517 18.55622597 25.875 26.3125 C26.52984375 26.28631592 27.1846875 26.26013184 27.859375 26.2331543 C30.86433325 26.12837336 33.86890599 26.06392059 36.875 26 C37.90496094 25.95810547 38.93492187 25.91621094 39.99609375 25.87304688 C45.94510056 25.77831747 50.12248896 26.29172224 55.15625 29.54614258 C61.93549668 36.51316669 61.48289716 43.65941364 61.44140625 52.93359375 C61.44664929 54.36174421 61.45292825 55.78989121 61.46018982 57.21803284 C61.47056446 60.2028947 61.46607592 63.18727897 61.45141602 66.17211914 C61.43423711 69.97973615 61.45772518 73.78584272 61.49290562 77.59329128 C61.51496541 80.54036786 61.51341762 83.48708779 61.5051403 86.43422127 C61.50432535 87.83712482 61.51110086 89.24005578 61.52591133 90.64288139 C61.64299056 103.73856286 61.64299056 103.73856286 57.53257751 109.69056702 C51.98511905 115.11873299 47.66737192 115.90590126 40.23291016 115.87768555 C38.8024662 115.89542778 38.8024662 115.89542778 37.34312439 115.91352844 C34.19986789 115.94634753 31.05747891 115.9493725 27.9140625 115.94921875 C25.72219491 115.95953702 23.53033071 115.97060053 21.33847046 115.9823761 C16.74704091 116.00179758 12.1559159 116.00523336 7.56445312 115.9987793 C1.6907234 115.99278352 -4.18142584 116.03701729 -10.05483055 116.09466839 C-14.58116765 116.13170072 -19.1071249 116.13656768 -23.63359451 116.13239479 C-25.79849233 116.13526198 -27.96340608 116.14929924 -30.12815475 116.17487144 C-33.16122203 116.20693674 -36.19104353 116.19425435 -39.22412109 116.1706543 C-40.11165573 116.18953705 -40.99919037 116.2084198 -41.91362 116.22787476 C-47.99484131 116.11573814 -51.23673697 114.43138672 -55.56021214 110.14792633 C-59.12835062 105.96265913 -59.38036073 102.27484543 -59.43139648 96.9050293 C-59.44738388 95.62987961 -59.46337128 94.35472992 -59.47984314 93.04093933 C-59.48622096 91.65620323 -59.49161335 90.27146229 -59.49609375 88.88671875 C-59.5050695 87.455713 -59.51419151 86.02470816 -59.52345276 84.59370422 C-59.5399151 81.59703295 -59.54763767 78.60047301 -59.55053711 75.60375977 C-59.55591484 71.78049809 -59.59357952 67.95829602 -59.63928127 64.13533306 C-59.66915697 61.17973597 -59.67626293 58.22439068 -59.67726326 55.26865578 C-59.68144566 53.86013759 -59.69379992 52.45161726 -59.71478081 51.04324913 C-59.82503009 43.00206539 -59.83713715 36.43170418 -54.125 30.3125 C-48.17153082 25.48905236 -42.6285799 25.82231617 -35.1875 26.0625 C-33.58938477 26.08957031 -33.58938477 26.08957031 -31.95898438 26.1171875 C-29.34671071 26.16404443 -26.73633774 26.22963074 -24.125 26.3125 C-24.18300781 25.466875 -24.24101562 24.62125 -24.30078125 23.75 C-24.56150463 17.19466932 -24.62272476 12.28173732 -20.625 6.8984375 C-14.46342641 0.38385709 -8.36665686 0.08643241 0 0 Z " fill="#020202" transform="translate(256.125,34.6875)"/>
<path d="M0 0 C29.7 0 59.4 0 90 0 C90 19.47 90 38.94 90 59 C60.3 59 30.6 59 0 59 C0 39.53 0 20.06 0 0 Z " fill="#7B5656" transform="translate(212,76)"/>
<path d="M0 0 C7.54815172 5.77119101 11.86867709 12.41462502 14.875 21.43359375 C15.82266075 34.1104982 14.21464843 44.44977757 5.859375 54.4296875 C2.55850515 57.76304623 -1.02014452 60.19066046 -5.125 62.43359375 C-5.72699219 62.77390625 -6.32898438 63.11421875 -6.94921875 63.46484375 C-14.18473974 66.85502278 -23.41367343 66.55292906 -31.03515625 64.7421875 C-41.71674395 60.79643872 -49.34515958 53.53343199 -54.328125 43.36328125 C-57.440502 35.82644676 -57.34635443 25.50046986 -55.44140625 17.59765625 C-54.50188633 15.3755552 -53.4451247 13.45090931 -52.125 11.43359375 C-51.7125 10.75167969 -51.3 10.06976563 -50.875 9.3671875 C-45.86254178 1.86274011 -38.16090503 -3.66901504 -29.46875 -6.1328125 C-18.93352446 -8.08182923 -8.85749642 -6.01809737 0 0 Z " fill="#030404" transform="translate(157.125,180.56640625)"/>
<path d="M0 0 C1.02931641 -0.00515625 2.05863281 -0.0103125 3.11914062 -0.015625 C4.18970703 -0.00015625 5.26027344 0.0153125 6.36328125 0.03125 C7.94012695 0.00804687 7.94012695 0.00804687 9.54882812 -0.015625 C17.06233407 0.02177889 23.909503 0.96602908 29.55541992 6.31054688 C35.07364276 12.40558442 36.13549759 17.05831388 35.98828125 25.265625 C35.41140283 31.29400448 33.24845912 35.40939011 28.67578125 39.34375 C27.68578125 40.065625 26.69578125 40.7875 25.67578125 41.53125 C24.34130495 42.52972423 23.00773543 43.52941377 21.67578125 44.53125 C22.68898438 45.63533203 22.68898438 45.63533203 23.72265625 46.76171875 C24.62377897 47.74732173 25.52481608 48.73300299 26.42578125 49.71875 C27.3075 50.68167969 28.18921875 51.64460938 29.09765625 52.63671875 C36.23123615 60.64578345 36.23123615 60.64578345 36.11328125 64.65625 C35.67578125 68.53125 35.67578125 68.53125 34.67578125 70.53125 C31.39602268 72.17112928 28.19931452 72.26939105 24.67578125 71.53125 C21.99085675 69.70225044 20.05089229 67.39742299 17.98828125 64.90625 C17.44623047 64.28878906 16.90417969 63.67132813 16.34570312 63.03515625 C14.76269521 61.22109411 13.21471414 59.38277082 11.67578125 57.53125 C11.17868652 56.93731445 10.6815918 56.34337891 10.16943359 55.73144531 C9.00166341 54.33406432 7.83821575 52.93307269 6.67578125 51.53125 C6.65 52.55605469 6.62421875 53.58085937 6.59765625 54.63671875 C6.54135067 55.99743699 6.48400388 57.35811243 6.42578125 58.71875 C6.40451172 59.72905273 6.40451172 59.72905273 6.3828125 60.75976562 C6.14843223 65.56456116 5.18749144 68.22165263 1.67578125 71.53125 C-1.82421875 72.09375 -1.82421875 72.09375 -5.32421875 71.53125 C-8.15767157 69.39386063 -9.20248572 68.21328846 -9.83215332 64.6854248 C-9.83533569 63.58718384 -9.83851807 62.48894287 -9.84179688 61.35742188 C-9.85440552 60.10932739 -9.86701416 58.86123291 -9.88000488 57.57531738 C-9.87284503 56.2168725 -9.86464104 54.85843278 -9.85546875 53.5 C-9.85816444 52.10282115 -9.86204751 50.70564412 -9.86706543 49.30847168 C-9.87295701 46.38303736 -9.86440938 43.45809221 -9.84570312 40.53271484 C-9.82291269 36.78643609 -9.83603775 33.04130355 -9.85999298 29.29506683 C-9.8744608 26.41078078 -9.8698407 23.52676562 -9.85948181 20.64247131 C-9.85681719 19.26139693 -9.86007505 17.88029779 -9.86940002 16.49925232 C-9.87957963 14.56786583 -9.86130762 12.63639289 -9.84179688 10.70507812 C-9.8386145 9.60683716 -9.83543213 8.50859619 -9.83215332 7.3770752 C-8.81896273 1.70043202 -5.41883187 0.02636672 0 0 Z " fill="#020202" transform="translate(375.32421875,173.46875)"/>
<path d="M0 0 C1.27294922 -0.00515625 2.54589844 -0.0103125 3.85742188 -0.015625 C4.51782471 -0.00724609 5.17822754 0.00113281 5.85864258 0.00976562 C7.86988473 0.03115406 9.87754149 0.00997255 11.88867188 -0.015625 C13.16291016 -0.01046875 14.43714844 -0.0053125 15.75 0 C17.49494751 0.00676758 17.49494751 0.00676758 19.27514648 0.01367188 C23.09058792 0.6373696 24.76663448 1.77488337 27.44140625 4.53125 C28.06640625 8.03125 28.06640625 8.03125 27.44140625 11.53125 C25.29377319 13.9489447 23.59910415 15.35662518 20.34375 15.84765625 C17.92655915 15.92471435 15.54516429 15.88041765 13.12890625 15.78125 C12.29294922 15.76320312 11.45699219 15.74515625 10.59570312 15.7265625 C8.54377397 15.67966126 6.49243869 15.60792411 4.44140625 15.53125 C4.44140625 19.82125 4.44140625 24.11125 4.44140625 28.53125 C5.55 28.50804687 6.65859375 28.48484375 7.80078125 28.4609375 C9.26431617 28.44217423 10.72785839 28.42397463 12.19140625 28.40625 C13.28582031 28.38111328 13.28582031 28.38111328 14.40234375 28.35546875 C21.34144078 28.29238605 21.34144078 28.29238605 24.44140625 30.53125 C25.98727501 33.62298752 25.73500146 36.12554552 25.44140625 39.53125 C23.96875 41.7421875 23.96875 41.7421875 21.44140625 43.53125 C18.50746022 44.01334856 15.65438935 43.90900715 12.69140625 43.78125 C11.89863281 43.76320312 11.10585938 43.74515625 10.2890625 43.7265625 C8.33932277 43.67958082 6.39020747 43.60784044 4.44140625 43.53125 C4.44140625 47.82125 4.44140625 52.11125 4.44140625 56.53125 C5.68277344 56.48484375 6.92414063 56.4384375 8.203125 56.390625 C9.84502796 56.35309579 11.48695702 56.31669686 13.12890625 56.28125 C13.94552734 56.24773437 14.76214844 56.21421875 15.60351562 56.1796875 C19.68975478 56.11351359 21.89460165 56.20877549 25.48828125 58.328125 C27.44140625 60.53125 27.44140625 60.53125 28.00390625 64.03125 C27.34568877 68.12682544 26.69550846 69.06142896 23.44140625 71.53125 C20.296875 72.04882812 20.296875 72.04882812 16.62890625 72.0625 C15.97817139 72.0663269 15.32743652 72.07015381 14.65698242 72.07409668 C13.28530321 72.07681076 11.91357181 72.06948453 10.54199219 72.05273438 C8.4473894 72.03131119 6.35621541 72.05254637 4.26171875 72.078125 C2.92577371 72.07548163 1.5898308 72.07035643 0.25390625 72.0625 C-0.95652344 72.05798828 -2.16695313 72.05347656 -3.4140625 72.04882812 C-7.24792222 71.4177891 -8.19490273 70.5615022 -10.55859375 67.53125 C-11.06652832 64.6854248 -11.06652832 64.6854248 -11.07617188 61.35742188 C-11.08878052 60.10932739 -11.10138916 58.86123291 -11.11437988 57.57531738 C-11.10722003 56.2168725 -11.09901604 54.85843278 -11.08984375 53.5 C-11.09253944 52.10282115 -11.09642251 50.70564412 -11.10144043 49.30847168 C-11.10733201 46.38303736 -11.09878438 43.45809221 -11.08007812 40.53271484 C-11.05728769 36.78643609 -11.07041275 33.04130355 -11.09436798 29.29506683 C-11.1088358 26.41078078 -11.1042157 23.52676562 -11.09385681 20.64247131 C-11.09119219 19.26139693 -11.09445005 17.88029779 -11.10377502 16.49925232 C-11.11395463 14.56786583 -11.09568262 12.63639289 -11.07617188 10.70507812 C-11.0729895 9.60683716 -11.06980713 8.50859619 -11.06652832 7.3770752 C-9.92486368 0.98062538 -5.88415102 0.02284315 0 0 Z " fill="#030303" transform="translate(315.55859375,173.46875)"/>
<path d="M0 0 C1.23685547 -0.02900391 2.47371094 -0.05800781 3.74804688 -0.08789062 C4.94107422 -0.09626953 6.13410156 -0.10464844 7.36328125 -0.11328125 C9.0016394 -0.13515503 9.0016394 -0.13515503 10.6730957 -0.1574707 C14.4129386 0.42560191 16.06258977 1.62350183 18.6875 4.3125 C19.29783975 8.11016953 19.3749496 10.25024911 17.26171875 13.515625 C13.32337693 16.26469516 9.61375915 15.74209045 4.9375 15.5625 C4.04933594 15.54445312 3.16117187 15.52640625 2.24609375 15.5078125 C0.05943225 15.46078752 -2.12667281 15.38904648 -4.3125 15.3125 C-4.3125 19.6025 -4.3125 23.8925 -4.3125 28.3125 C-3.21550781 28.26609375 -2.11851562 28.2196875 -0.98828125 28.171875 C0.4661185 28.1343421 1.92054783 28.09794357 3.375 28.0625 C4.09623047 28.02898437 4.81746094 27.99546875 5.56054688 27.9609375 C9.41155754 27.89059941 11.28572944 28.07059626 14.671875 30.109375 C16.6875 32.3125 16.6875 32.3125 17.25 35.8125 C16.58712447 39.93705887 16.03204101 40.88968289 12.6875 43.3125 C9.79300051 43.6031124 7.30800065 43.69436045 4.4375 43.5625 C3.69242187 43.54445312 2.94734375 43.52640625 2.1796875 43.5078125 C0.34840299 43.46085649 -1.48221649 43.38911652 -3.3125 43.3125 C-3.29155273 43.9830542 -3.27060547 44.6536084 -3.24902344 45.34448242 C-3.16563973 48.3961678 -3.11376984 51.44761317 -3.0625 54.5 C-3.02898437 55.55509766 -2.99546875 56.61019531 -2.9609375 57.69726562 C-2.86221126 65.52132022 -2.86221126 65.52132022 -5.11328125 69.4765625 C-8.25160341 72.0964762 -10.24222574 72.52672496 -14.3125 72.3125 C-17.7120714 69.56865523 -19.06658912 67.82399876 -19.77297974 63.48214722 C-19.95913568 59.90436387 -19.97893058 56.35982667 -19.94140625 52.77734375 C-19.94381821 51.46592911 -19.94623016 50.15451447 -19.94871521 48.80335999 C-19.95156528 46.0351745 -19.93695011 43.2678017 -19.90942383 40.49975586 C-19.8753068 36.95983409 -19.88137667 33.42136119 -19.9000864 29.88136959 C-19.91322109 26.49238464 -19.89493639 23.10381859 -19.87890625 19.71484375 C-19.88386612 18.44704575 -19.88882599 17.17924774 -19.89393616 15.87303162 C-19.87809982 14.6915303 -19.86226349 13.51002899 -19.84594727 12.29272461 C-19.83974869 11.25603134 -19.83355011 10.21933807 -19.8271637 9.15122986 C-19.18171611 5.59113547 -17.78785892 3.90274329 -15.3125 1.3125 C-10.8740003 -0.90674985 -4.87384797 0.03774276 0 0 Z " fill="#080809" transform="translate(269.3125,173.6875)"/>
<path d="M0 0 C1.7644043 -0.00966797 1.7644043 -0.00966797 3.56445312 -0.01953125 C5.38686523 0.00947266 5.38686523 0.00947266 7.24609375 0.0390625 C9.07430664 0.01005859 9.07430664 0.01005859 10.93945312 -0.01953125 C20.84226637 0.03479027 20.84226637 0.03479027 23.98828125 3.01171875 C26.07009427 6.2687488 26.41001284 7.87054057 25.68359375 11.6640625 C24.2578125 13.83203125 24.2578125 13.83203125 21.68359375 15.6640625 C18.42047396 16.1569866 15.22408074 16.04043275 11.93359375 15.9140625 C11.04542969 15.89601562 10.15726563 15.87796875 9.2421875 15.859375 C7.055526 15.81235002 4.86942094 15.74060898 2.68359375 15.6640625 C2.68359375 19.9540625 2.68359375 24.2440625 2.68359375 28.6640625 C3.78058594 28.61765625 4.87757813 28.57125 6.0078125 28.5234375 C7.46221225 28.4859046 8.91664158 28.44950607 10.37109375 28.4140625 C11.09232422 28.38054687 11.81355469 28.34703125 12.55664062 28.3125 C16.40765129 28.24216191 18.28182319 28.42215876 21.66796875 30.4609375 C23.68359375 32.6640625 23.68359375 32.6640625 24.24609375 36.1640625 C23.68359375 39.6640625 23.68359375 39.6640625 22.1953125 41.8671875 C18.51277291 44.50166373 15.33916177 44.10402066 10.93359375 43.9140625 C10.14082031 43.89601562 9.34804687 43.87796875 8.53125 43.859375 C6.58151027 43.81239332 4.63239497 43.74065294 2.68359375 43.6640625 C2.70977783 44.36490967 2.73596191 45.06575684 2.76293945 45.7878418 C2.86712915 48.975519 2.93198958 52.16283776 2.99609375 55.3515625 C3.05893555 57.00575195 3.05893555 57.00575195 3.12304688 58.69335938 C3.24644707 66.86245199 3.24644707 66.86245199 0.390625 70.9296875 C-2.31640625 72.6640625 -2.31640625 72.6640625 -5.94140625 72.7265625 C-9.71162493 71.5396418 -10.41461224 71.00550124 -12.31640625 67.6640625 C-12.71754456 64.8629303 -12.71754456 64.8629303 -12.75219727 61.59790039 C-12.77133682 60.37305435 -12.79047638 59.14820831 -12.81019592 57.88624573 C-12.81353439 56.56640182 -12.81687286 55.24655792 -12.8203125 53.88671875 C-12.82995755 52.51435535 -12.84005032 51.14199503 -12.85057068 49.76963806 C-12.86851452 46.89558767 -12.87409348 44.02180752 -12.87231445 41.14770508 C-12.87200949 37.47070694 -12.91298083 33.79544566 -12.96463108 30.11885929 C-12.99804076 27.28515211 -13.00407074 24.451863 -13.00248528 21.61797905 C-13.00773106 19.60546368 -13.04021947 17.59307882 -13.07313538 15.58082581 C-13.00731134 6.82321227 -13.00731134 6.82321227 -11.15611267 3.71740723 C-7.8245406 0.62519785 -4.39660323 0.02321858 0 0 Z " fill="#040505" transform="translate(204.31640625,173.3359375)"/>
<path d="M0 0 C1.46890434 -0.00569504 1.46890434 -0.00569504 2.96748352 -0.01150513 C6.20586125 -0.01891709 9.44334256 0.00248149 12.68164062 0.02490234 C14.93078506 0.02728649 17.17993151 0.02819215 19.42907715 0.02767944 C24.14343732 0.03080857 28.85749361 0.0473829 33.57177734 0.07421875 C39.61804131 0.10819853 45.66397125 0.11584737 51.71031952 0.11432838 C56.35482987 0.11487197 60.99926703 0.12583739 65.64375305 0.14033127 C67.87331081 0.14670046 70.10287687 0.15063845 72.33244324 0.15211868 C75.44703321 0.15645032 78.56126757 0.17394873 81.67578125 0.1953125 C82.59954056 0.19440613 83.52329987 0.19349976 84.47505188 0.19256592 C85.74937325 0.20536087 85.74937325 0.20536087 87.04943848 0.21841431 C87.78536476 0.221766 88.52129105 0.22511768 89.27951813 0.22857094 C91.68221109 0.52887528 93.2831334 1.2167987 95.33789062 2.48583984 C96.8628106 5.5356798 96.57351611 8.12817674 96.33789062 11.48583984 C94.7952625 13.58942365 93.65680745 14.32638143 91.33789062 15.48583984 C89.99137267 15.58556583 88.64013072 15.62519002 87.28994751 15.63301086 C86.01975014 15.64374382 86.01975014 15.64374382 84.72389221 15.6546936 C83.32746742 15.65872696 83.32746742 15.65872696 81.90283203 15.6628418 C80.92385452 15.66941299 79.94487701 15.67598419 78.93623352 15.68275452 C75.68730601 15.70251208 72.43842473 15.71415452 69.18945312 15.72412109 C68.08199108 15.72819662 66.97452904 15.73227215 65.83350754 15.73647118 C59.97396785 15.75734065 54.11445165 15.77163958 48.25488281 15.78100586 C42.19278545 15.79208273 36.13105391 15.82649511 30.06908607 15.86617756 C25.41601869 15.89227797 20.7630394 15.90069176 16.10990524 15.90428734 C13.87473449 15.90916894 11.63956807 15.92082734 9.40446854 15.93932533 C6.27992696 15.96358055 3.15634448 15.96277671 0.03173828 15.95581055 C-0.89516312 15.96862061 -1.82206451 15.98143066 -2.77705383 15.99462891 C-9.01084258 15.9438495 -9.01084258 15.9438495 -12.23672485 13.67521667 C-14.33761167 10.44827485 -14.19953204 8.24779853 -13.66210938 4.48583984 C-10.23947787 -0.76160484 -5.67377183 -0.06903053 0 0 Z " fill="#000000" transform="translate(215.662109375,288.51416015625)"/>
<path d="M0 0 C5.3380334 2.9939868 9.51294443 7.75686273 11.8125 13.4375 C12.5934814 20.06062802 12.16714204 25.65363441 8.8125 31.4375 C4.84017736 36.18221871 0.41023572 39.90509965 -5.80078125 40.82421875 C-12.08920536 41.07645153 -17.07148897 40.21637178 -22.1875 36.4375 C-26.44195945 32.4760773 -28.85569208 28.16531036 -29.55859375 22.38671875 C-29.68601841 16.12791926 -29.62925228 11.23735379 -25.8203125 6.08984375 C-18.89332419 -0.92000327 -9.30620918 -4.18779413 0 0 Z " fill="#D9E7FB" transform="translate(145.1875,190.5625)"/>
<path d="M0 0 C0 9.24 0 18.48 0 28 C-4.28276226 26.2868951 -7.94599933 24.31473175 -11.8125 21.875 C-12.7087207 21.31619141 -12.7087207 21.31619141 -13.62304688 20.74609375 C-15.08426251 19.8342952 -16.54244585 18.91764024 -18 18 C-14.2698595 13.46334263 -10.32946434 9.22058878 -6.1875 5.0625 C-5.69531982 4.56580811 -5.20313965 4.06911621 -4.69604492 3.55737305 C-1.12375366 0 -1.12375366 0 0 0 Z " fill="#F58555" transform="translate(60,219)"/>
<path d="M0 0 C2.79192205 -0.05380578 5.5828141 -0.09357669 8.375 -0.125 C9.1690625 -0.14175781 9.963125 -0.15851562 10.78125 -0.17578125 C12.85492015 -0.19335473 14.92883241 -0.10335168 17 0 C19 2 19 2 19 11 C12.4 11 5.8 11 -1 11 C-1 2 -1 2 0 0 Z " fill="#D3E0F4" transform="translate(248,50)"/>
<path d="M0 0 C8.22377622 7.04895105 8.22377622 7.04895105 11.4375 10.1875 C12.11683594 10.84105469 12.79617188 11.49460938 13.49609375 12.16796875 C15 14 15 14 15 17 C12.6889639 18.33592797 10.37628245 19.66884431 8.0625 21 C7.40314453 21.3815625 6.74378906 21.763125 6.06445312 22.15625 C1.11328125 25 1.11328125 25 0 25 C0 16.75 0 8.5 0 0 Z " fill="#F38454" transform="translate(454,221)"/>
<path d="M0 0 C10.31991701 -0.36856846 10.31991701 -0.36856846 13.328125 1.26171875 C15.30971035 3.32201193 15.54271912 4.18053796 15.5 7 C15.5103125 7.680625 15.520625 8.36125 15.53125 9.0625 C15 11 15 11 13.328125 12.73828125 C9.09678784 15.0314388 4.71730274 14.1684751 0 14 C0 9.38 0 4.76 0 0 Z " fill="#D8E6FB" transform="translate(381,189)"/>
</svg>
